<svg xmlns="http://www.w3.org/2000/svg" width="22" height="22" fill="none" viewBox="0 0 24 24">
    <path fill="currentColor"
        d="M17.75 2.75a.75.75 0 0 1 .75.75v1a.75.75 0 0 1-1.5 0v-1a.75.75 0 0 1 .75-.75Zm3.53 2.22a.75.75 0 0 1 0 1.06l-.71.71a.75.75 0 1 1-1.06-1.06l.71-.71a.75.75 0 0 1 1.06 0ZM12 5.25a.75.75 0 0 1 .75-.75h1a.75.75 0 0 1 0 1.5h-1A.75.75 0 0 1 12 5.25Zm7.03 4.97a.75.75 0 0 1 0 1.06.75.75 0 0 1-1.06 0l-.71-.71a.75.75 0 1 1 1.06-1.06l.71.71ZM4.28 19.72a2 2 0 0 1 0-2.83l8.6-8.6a2 2 0 0 1 2.83 2.83l-8.6 8.6a2 2 0 0 1-2.83 0Zm1.41-1.41a.5.5 0 0 0 .7 0l8.6-8.6a.5.5 0 0 0-.7-.7l-8.6 8.6a.5.5 0 0 0 0 .7Z" />
</svg>
